<svg id="SvgjsSvg1254" width="1358" height="668.25" xmlns="http://www.w3.org/2000/svg" version="1.1" xmlns:xlink="http://www.w3.org/1999/xlink" xmlns:svgjs="http://svgjs.com/svgjs"><defs id="SvgjsDefs1255"></defs><g id="SvgjsG1256" transform="translate(25,25)"><path id="SvgjsPath1257" d="M 0 4Q 0 0 4 0L 1304 0Q 1308 0 1308 4L 1308 466Q 1308 470 1304 470L 4 470Q 0 470 0 466Z" stroke="rgba(97,97,97,1)" stroke-width="2" fill-opacity="1" fill="#ffe0b2"></path><g id="SvgjsG1258"><text id="SvgjsText1259" font-family="微软雅黑" text-anchor="start" font-size="16px" width="1298px" fill="#323232" font-weight="700" align="middle" lineHeight="125%" anchor="start" family="微软雅黑" size="16px" weight="700" font-style="" opacity="1" y="22.57142857142857" transform="rotate(0)"><tspan id="SvgjsTspan1260" dy="20" x="5"><tspan id="SvgjsTspan1261" style="text-decoration:;">JVM Runtime Data Areas</tspan></tspan></text></g></g><g id="SvgjsG1262" transform="translate(77,151.5)"><path id="SvgjsPath1263" d="M 0 4Q 0 0 4 0L 238 0Q 242 0 242 4L 242 177Q 242 181 238 181L 4 181Q 0 181 0 177Z" stroke="rgba(50,50,50,1)" stroke-width="2" fill-opacity="1" fill="#ffffff"></path><g id="SvgjsG1264"><text id="SvgjsText1265" font-family="微软雅黑" text-anchor="middle" font-size="13px" width="232px" fill="#323232" font-weight="700" align="middle" lineHeight="125%" anchor="middle" family="微软雅黑" size="13px" weight="700" font-style="" opacity="1" y="4.303571428571427" transform="rotate(0)"><tspan id="SvgjsTspan1266" dy="16" x="121"><tspan id="SvgjsTspan1267" style="text-decoration:;">本地内存</tspan></tspan></text></g></g><g id="SvgjsG1268" transform="translate(87.49999999999997,180.75)"><path id="SvgjsPath1269" d="M 0 0L 103.50000000000003 0L 103.50000000000003 146L 0 146Z" stroke="rgba(97,97,97,1)" stroke-width="2" fill-opacity="1" fill="#0097a7"></path><g id="SvgjsG1270"><text id="SvgjsText1271" font-family="微软雅黑" text-anchor="middle" font-size="13px" width="84px" fill="#323232" font-weight="700" align="middle" lineHeight="125%" anchor="middle" family="微软雅黑" size="13px" weight="700" font-style="" opacity="1" y="55.375" transform="rotate(0)"><tspan id="SvgjsTspan1272" dy="16" x="52"><tspan id="SvgjsTspan1273" style="text-decoration:;">元数据区</tspan></tspan><tspan id="SvgjsTspan1274" dy="16" x="52"><tspan id="SvgjsTspan1275" style="text-decoration:;">Metaspace</tspan></tspan></text></g></g><g id="SvgjsG1276" transform="translate(913,149)"><path id="SvgjsPath1277" d="M 0 0L 178 0L 178 60L 0 60Z" stroke="rgba(97,97,97,1)" stroke-width="2" fill-opacity="1" fill="#fbc02d"></path><g id="SvgjsG1278"><text id="SvgjsText1279" font-family="微软雅黑" text-anchor="middle" font-size="13px" width="158px" fill="#323232" font-weight="700" align="top" lineHeight="125%" anchor="middle" family="微软雅黑" size="13px" weight="700" font-style="" opacity="1" y="-1.625" transform="rotate(0)"><tspan id="SvgjsTspan1280" dy="16" x="89"><tspan id="SvgjsTspan1281" style="text-decoration:;"> </tspan></tspan><tspan id="SvgjsTspan1282" dy="16" x="89"><tspan id="SvgjsTspan1283" style="text-decoration:;">PC Registers For </tspan></tspan><tspan id="SvgjsTspan1284" dy="16" x="89"><tspan id="SvgjsTspan1285" style="text-decoration:;">Thread1</tspan></tspan></text></g></g><g id="SvgjsG1286" transform="translate(1130.25,148.5)"><path id="SvgjsPath1287" d="M 0 0L 133 0L 133 187L 0 187Z" stroke="rgba(97,97,97,1)" stroke-width="2" fill-opacity="1" fill="#e57373"></path><g id="SvgjsG1288"><text id="SvgjsText1289" font-family="微软雅黑" text-anchor="middle" font-size="13px" width="113px" fill="#323232" font-weight="700" align="middle" lineHeight="125%" anchor="middle" family="微软雅黑" size="13px" weight="700" font-style="" opacity="1" y="67.875" transform="rotate(0)"><tspan id="SvgjsTspan1290" dy="16" x="66.5"><tspan id="SvgjsTspan1291" style="text-decoration:;">本地方法栈</tspan></tspan><tspan id="SvgjsTspan1292" dy="16" x="66.5"><tspan id="SvgjsTspan1293" style="text-decoration:;">Native Method </tspan></tspan><tspan id="SvgjsTspan1294" dy="16" x="66.5"><tspan id="SvgjsTspan1295" style="text-decoration:;">Stack</tspan></tspan></text></g></g><g id="SvgjsG1296" transform="translate(334.375,151.5)"><path id="SvgjsPath1297" d="M 0 0L 122 0L 122 181L 0 181Z" stroke="rgba(97,97,97,1)" stroke-width="2" fill-opacity="1" fill="#99ccff"></path><g id="SvgjsG1298"><text id="SvgjsText1299" font-family="微软雅黑" text-anchor="middle" font-size="13px" width="102px" fill="#323232" font-weight="700" align="middle" lineHeight="125%" anchor="middle" family="微软雅黑" size="13px" weight="700" font-style="" opacity="1" y="72.875" transform="rotate(0)"><tspan id="SvgjsTspan1300" dy="16" x="61"><tspan id="SvgjsTspan1301" style="text-decoration:;font-size: inherit;">堆</tspan></tspan><tspan id="SvgjsTspan1302" dy="16" x="61"><tspan id="SvgjsTspan1303" style="text-decoration:;font-size: inherit;">Heap</tspan></tspan></text></g></g><g id="SvgjsG1304" transform="translate(494,151.5)"><path id="SvgjsPath1305" d="M 0 0L 122 0L 122 181L 0 181Z" stroke="rgba(97,97,97,1)" stroke-width="2" fill-opacity="1" fill="#4caf50"></path><g id="SvgjsG1306"><text id="SvgjsText1307" font-family="微软雅黑" text-anchor="middle" font-size="13px" width="102px" fill="#323232" font-weight="700" align="top" lineHeight="125%" anchor="middle" family="微软雅黑" size="13px" weight="700" font-style="" opacity="1" y="-1.625" transform="rotate(0)"><tspan id="SvgjsTspan1308" dy="16" x="61"><tspan id="SvgjsTspan1309" style="text-decoration:;"> </tspan></tspan><tspan id="SvgjsTspan1310" dy="16" x="61"><tspan id="SvgjsTspan1311" style="text-decoration:;">Thread1</tspan></tspan><tspan id="SvgjsTspan1312" dy="16" x="61"><tspan id="SvgjsTspan1313" style="text-decoration:;">...</tspan></tspan><tspan id="SvgjsTspan1314" dy="16" x="61"><tspan id="SvgjsTspan1315" style="text-decoration:;">Stack Frame</tspan></tspan><tspan id="SvgjsTspan1316" dy="16" x="61"><tspan id="SvgjsTspan1317" style="text-decoration:;"> </tspan></tspan><tspan id="SvgjsTspan1318" dy="16" x="61"><tspan id="SvgjsTspan1319" style="text-decoration:;">Stack Frame</tspan></tspan></text></g></g><g id="SvgjsG1320" transform="translate(618,151.5)"><path id="SvgjsPath1321" d="M 0 0L 122 0L 122 181L 0 181Z" stroke="rgba(97,97,97,1)" stroke-width="2" fill-opacity="1" fill="#4caf50"></path><g id="SvgjsG1322"><text id="SvgjsText1323" font-family="微软雅黑" text-anchor="middle" font-size="13px" width="102px" fill="#323232" font-weight="700" align="top" lineHeight="125%" anchor="middle" family="微软雅黑" size="13px" weight="700" font-style="" opacity="1" y="-1.625" transform="rotate(0)"><tspan id="SvgjsTspan1324" dy="16" x="61"><tspan id="SvgjsTspan1325" style="text-decoration:;"> </tspan></tspan><tspan id="SvgjsTspan1326" dy="16" x="61"><tspan id="SvgjsTspan1327" style="text-decoration:;">Thread2</tspan></tspan><tspan id="SvgjsTspan1328" dy="16" x="61"><tspan id="SvgjsTspan1329" style="text-decoration:;">...</tspan></tspan><tspan id="SvgjsTspan1330" dy="16" x="61"><tspan id="SvgjsTspan1331" style="text-decoration:;">Stack Frame</tspan></tspan><tspan id="SvgjsTspan1332" dy="16" x="61"><tspan id="SvgjsTspan1333" style="text-decoration:;"> </tspan></tspan><tspan id="SvgjsTspan1334" dy="16" x="61"><tspan id="SvgjsTspan1335" style="text-decoration:;">Stack Frame</tspan></tspan></text></g></g><g id="SvgjsG1336" transform="translate(559,90)"><path id="SvgjsPath1337" d="M 0 0L 201 0L 201 43L 0 43Z" stroke="none" fill="none"></path><g id="SvgjsG1338"><text id="SvgjsText1339" font-family="微软雅黑" text-anchor="middle" font-size="13px" width="201px" fill="#323232" font-weight="700" align="middle" lineHeight="125%" anchor="middle" family="微软雅黑" size="13px" weight="700" font-style="" opacity="1" y="3.875" transform="rotate(0)"><tspan id="SvgjsTspan1340" dy="16" x="100.5"><tspan id="SvgjsTspan1341" style="text-decoration:;">Java 虚拟机栈</tspan></tspan><tspan id="SvgjsTspan1342" dy="16" x="100.5"><tspan id="SvgjsTspan1343" style="text-decoration:;">Java Virtual Machine Stacks</tspan></tspan></text></g></g><g id="SvgjsG1344" transform="translate(742,151.5)"><path id="SvgjsPath1345" d="M 0 0L 133 0L 133 181L 0 181Z" stroke="rgba(97,97,97,1)" stroke-width="2" fill-opacity="1" fill="#4caf50"></path><g id="SvgjsG1346"><text id="SvgjsText1347" font-family="微软雅黑" text-anchor="middle" font-size="13px" width="113px" fill="#323232" font-weight="700" align="top" lineHeight="125%" anchor="middle" family="微软雅黑" size="13px" weight="700" font-style="" opacity="1" y="-1.625" transform="rotate(0)"><tspan id="SvgjsTspan1348" dy="16" x="66.5"><tspan id="SvgjsTspan1349" style="text-decoration:;"> </tspan></tspan><tspan id="SvgjsTspan1350" dy="16" x="66.5"><tspan id="SvgjsTspan1351" style="text-decoration:;">Thread3</tspan></tspan><tspan id="SvgjsTspan1352" dy="16" x="66.5"><tspan id="SvgjsTspan1353" style="text-decoration:;">...</tspan></tspan><tspan id="SvgjsTspan1354" dy="16" x="66.5"><tspan id="SvgjsTspan1355" style="text-decoration:;">Stack Frame</tspan></tspan><tspan id="SvgjsTspan1356" dy="16" x="66.5"><tspan id="SvgjsTspan1357" style="text-decoration:;"> </tspan></tspan><tspan id="SvgjsTspan1358" dy="16" x="66.5"><tspan id="SvgjsTspan1359" style="text-decoration:;">Stack Frame</tspan></tspan></text></g></g><g id="SvgjsG1360" transform="translate(913,212)"><path id="SvgjsPath1361" d="M 0 0L 178 0L 178 60L 0 60Z" stroke="rgba(97,97,97,1)" stroke-width="2" fill-opacity="1" fill="#fbc02d"></path><g id="SvgjsG1362"><text id="SvgjsText1363" font-family="微软雅黑" text-anchor="middle" font-size="13px" width="158px" fill="#323232" font-weight="700" align="top" lineHeight="125%" anchor="middle" family="微软雅黑" size="13px" weight="700" font-style="" opacity="1" y="-1.625" transform="rotate(0)"><tspan id="SvgjsTspan1364" dy="16" x="89"><tspan id="SvgjsTspan1365" style="text-decoration:;"> </tspan></tspan><tspan id="SvgjsTspan1366" dy="16" x="89"><tspan id="SvgjsTspan1367" style="text-decoration:;">PC Registers For </tspan></tspan><tspan id="SvgjsTspan1368" dy="16" x="89"><tspan id="SvgjsTspan1369" style="text-decoration:;">Thread2</tspan></tspan></text></g></g><g id="SvgjsG1370" transform="translate(913,271)"><path id="SvgjsPath1371" d="M 0 0L 178 0L 178 60L 0 60Z" stroke="rgba(97,97,97,1)" stroke-width="2" fill-opacity="1" fill="#fbc02d"></path><g id="SvgjsG1372"><text id="SvgjsText1373" font-family="微软雅黑" text-anchor="middle" font-size="13px" width="158px" fill="#323232" font-weight="700" align="top" lineHeight="125%" anchor="middle" family="微软雅黑" size="13px" weight="700" font-style="" opacity="1" y="-1.625" transform="rotate(0)"><tspan id="SvgjsTspan1374" dy="16" x="89"><tspan id="SvgjsTspan1375" style="text-decoration:;"> </tspan></tspan><tspan id="SvgjsTspan1376" dy="16" x="89"><tspan id="SvgjsTspan1377" style="text-decoration:;">PC Registers For </tspan></tspan><tspan id="SvgjsTspan1378" dy="16" x="89"><tspan id="SvgjsTspan1379" style="text-decoration:;">Thread3</tspan></tspan></text></g></g><g id="SvgjsG1380" transform="translate(907,86)"><path id="SvgjsPath1381" d="M 0 0L 173 0L 173 37L 0 37Z" stroke="none" fill="none"></path><g id="SvgjsG1382"><text id="SvgjsText1383" font-family="微软雅黑" text-anchor="middle" font-size="13px" width="173px" fill="#323232" font-weight="700" align="middle" lineHeight="125%" anchor="middle" family="微软雅黑" size="13px" weight="700" font-style="" opacity="1" y="0.875" transform="rotate(0)"><tspan id="SvgjsTspan1384" dy="16" x="86.5"><tspan id="SvgjsTspan1385" style="text-decoration:;">程序计数器</tspan></tspan><tspan id="SvgjsTspan1386" dy="16" x="86.5"><tspan id="SvgjsTspan1387" style="text-decoration:;">Program Counter Register</tspan></tspan></text></g></g><g id="SvgjsG1388" transform="matrix(6.123233995736766e-17,1,-1,6.123233995736766e-17,429.99999999999994,347.50000000000006)"><path id="SvgjsPath1389" d="M 0 319.5Q 7.1499999999999915 319.5 7.1499999999999915 310.5L 7.1499999999999915 168.75Q 7.1499999999999915 159.75 22 159.75Q 7.1499999999999915 159.75 7.1499999999999915 150.75L 7.1499999999999915 9Q 7.1499999999999915 0 0 0" stroke="rgba(97,97,97,1)" stroke-width="2" fill-opacity="1" fill="#0097a7"></path><path id="SvgjsPath1390" d="M 0 0L 71.49999999999991 0L 71.49999999999991 319.5L 0 319.5Z" stroke="none" fill="none"></path><g id="SvgjsG1391"><text id="SvgjsText1392" font-family="微软雅黑" text-anchor="start" font-size="13px" width="45px" fill="#323232" font-weight="400" align="middle" lineHeight="125%" anchor="start" family="微软雅黑" size="13px" weight="400" font-style="" opacity="1" y="150.125" transform="rotate(0)"></text></g></g><g id="SvgjsG1393" transform="translate(212.375,373.5)"><path id="SvgjsPath1394" d="M 0 0L 122 0L 122 43L 0 43Z" stroke="none" fill="none"></path><g id="SvgjsG1395"><text id="SvgjsText1396" font-family="微软雅黑" text-anchor="middle" font-size="13px" width="122px" fill="#323232" font-weight="700" align="middle" lineHeight="125%" anchor="middle" family="微软雅黑" size="13px" weight="700" font-style="" opacity="1" y="11.875" transform="rotate(0)"><tspan id="SvgjsTspan1397" dy="16" x="61"><tspan id="SvgjsTspan1398" style="text-decoration:;">所有线程共享数据区</tspan></tspan></text></g></g><g id="SvgjsG1399" transform="translate(822,369.5)"><path id="SvgjsPath1400" d="M 0 0L 122 0L 122 43L 0 43Z" stroke="none" fill="none"></path><g id="SvgjsG1401"><text id="SvgjsText1402" font-family="微软雅黑" text-anchor="middle" font-size="13px" width="122px" fill="#323232" font-weight="400" align="middle" lineHeight="125%" anchor="middle" family="微软雅黑" size="13px" weight="400" font-style="" opacity="1" y="11.875" transform="rotate(0)"><tspan id="SvgjsTspan1403" dy="16" x="61"><tspan id="SvgjsTspan1404" style="text-decoration:;font-weight: bold;">线程私有数据区</tspan></tspan></text></g></g><g id="SvgjsG1405" transform="translate(71.50000000000006,544.5)"><path id="SvgjsPath1406" d="M 0 4Q 0 0 4 0L 41.49999999999994 0Q 45.49999999999994 0 45.49999999999994 4L 45.49999999999994 39Q 45.49999999999994 43 41.49999999999994 43L 4 43Q 0 43 0 39Z" stroke="rgba(97,97,97,1)" stroke-width="2" fill-opacity="1" fill="#99ccff"></path><g id="SvgjsG1407"><text id="SvgjsText1408" font-family="微软雅黑" text-anchor="middle" font-size="13px" width="26px" fill="#323232" font-weight="700" align="middle" lineHeight="125%" anchor="middle" family="微软雅黑" size="13px" weight="700" font-style="" opacity="1" y="11.875" transform="rotate(0)"><tspan id="SvgjsTspan1409" dy="16" x="23"><tspan id="SvgjsTspan1410" style="text-decoration:;">堆</tspan></tspan></text></g></g><g id="SvgjsG1411" transform="translate(60.75,517.75)"><path id="SvgjsPath1412" d="M 88 0Q 79.2 0 79.2 9L 79.2 39.25Q 79.2 48.25 66 48.25Q 79.2 48.25 79.2 57.25L 79.2 87.5Q 79.2 96.5 88 96.5" stroke="rgba(97,97,97,1)" stroke-width="2" fill-opacity="1" fill="#99ccff"></path><path id="SvgjsPath1413" d="M 0 0L 88 0L 88 96.5L 0 96.5Z" stroke="none" fill="none"></path><g id="SvgjsG1414"><text id="SvgjsText1415" font-family="微软雅黑" text-anchor="end" font-size="13px" width="61px" fill="#323232" font-weight="700" align="middle" lineHeight="125%" anchor="end" family="微软雅黑" size="13px" weight="700" font-style="" opacity="1" y="38.625" transform="rotate(0)"></text></g></g><g id="SvgjsG1416" transform="translate(165.375,489.25)"><path id="SvgjsPath1417" d="M 0 0L 88 0L 88 153.5L 0 153.5Z" stroke="none" fill="none"></path><g id="SvgjsG1418"><text id="SvgjsText1419" font-family="微软雅黑" text-anchor="start" font-size="15px" width="88px" fill="#323232" font-weight="700" align="middle" lineHeight="125%" anchor="start" family="微软雅黑" size="15px" weight="700" font-style="" opacity="1" y="29.875" transform="rotate(0)"><tspan id="SvgjsTspan1420" dy="18" x="0"><tspan id="SvgjsTspan1421" style="text-decoration:;">-Xms</tspan></tspan><tspan id="SvgjsTspan1422" dy="18" x="0"><tspan id="SvgjsTspan1423" style="text-decoration:;"> </tspan></tspan><tspan id="SvgjsTspan1424" dy="18" x="0"><tspan id="SvgjsTspan1425" style="text-decoration:;">-Xmx</tspan></tspan><tspan id="SvgjsTspan1426" dy="18" x="0"><tspan id="SvgjsTspan1427" style="text-decoration:;"> </tspan></tspan><tspan id="SvgjsTspan1428" dy="18" x="0"><tspan id="SvgjsTspan1429" style="text-decoration:;">-Xmn</tspan></tspan></text></g></g><g id="SvgjsG1430" transform="translate(319,517.75)"><path id="SvgjsPath1431" d="M 88 0Q 79.2 0 79.2 9L 79.2 39.25Q 79.2 48.25 66 48.25Q 79.2 48.25 79.2 57.25L 79.2 87.5Q 79.2 96.5 88 96.5" stroke="rgba(97,97,97,1)" stroke-width="2" fill-opacity="1" fill="#0097a7"></path><path id="SvgjsPath1432" d="M 0 0L 88 0L 88 96.5L 0 96.5Z" stroke="none" fill="none"></path><g id="SvgjsG1433"><text id="SvgjsText1434" font-family="微软雅黑" text-anchor="end" font-size="13px" width="61px" fill="#323232" font-weight="700" align="middle" lineHeight="125%" anchor="end" family="微软雅黑" size="13px" weight="700" font-style="" opacity="1" y="38.625" transform="rotate(0)"></text></g></g><g id="SvgjsG1435" transform="translate(293.99999999999994,534.25)"><path id="SvgjsPath1436" d="M 0 4Q 0 0 4 0L 74 0Q 78 0 78 4L 78 59.5Q 78 63.5 74 63.5L 4 63.5Q 0 63.5 0 59.5Z" stroke="rgba(97,97,97,1)" stroke-width="2" fill-opacity="1" fill="#0097a7"></path><g id="SvgjsG1437"><text id="SvgjsText1438" font-family="微软雅黑" text-anchor="middle" font-size="13px" width="58px" fill="#323232" font-weight="700" align="middle" lineHeight="125%" anchor="middle" family="微软雅黑" size="13px" weight="700" font-style="" opacity="1" y="22.125" transform="rotate(0)"><tspan id="SvgjsTspan1439" dy="16" x="39"><tspan id="SvgjsTspan1440" style="text-decoration:;">元数据区</tspan></tspan></text></g></g><g id="SvgjsG1441" transform="translate(418,509)"><path id="SvgjsPath1442" d="M 0 0L 209 0L 209 114L 0 114Z" stroke="none" fill="none"></path><g id="SvgjsG1443"><text id="SvgjsText1444" font-family="微软雅黑" text-anchor="start" font-size="15px" width="209px" fill="#323232" font-weight="700" align="middle" lineHeight="125%" anchor="start" family="微软雅黑" size="15px" weight="700" font-style="" opacity="1" y="28.125" transform="rotate(0)"><tspan id="SvgjsTspan1445" dy="18" x="0"><tspan id="SvgjsTspan1446" style="text-decoration:;">-</tspan></tspan><tspan id="SvgjsTspan1447" dy="18" x="0"><tspan id="SvgjsTspan1448" style="text-decoration:;">XX:MaxMetaspaceSize=size</tspan></tspan><tspan id="SvgjsTspan1449" dy="18" x="0"><tspan id="SvgjsTspan1450" style="text-decoration:;"> </tspan></tspan><tspan id="SvgjsTspan1451" dy="18" x="0"><tspan id="SvgjsTspan1452" style="text-decoration:;">-XX:MetaspaceSize=size</tspan></tspan></text></g></g><g id="SvgjsG1453" transform="translate(200.93750000000006,181)"><path id="SvgjsPath1454" d="M 0 0L 102.99999999999997 0L 102.99999999999997 145.5L 0 145.5Z" stroke="rgba(97,97,97,1)" stroke-width="2" fill-opacity="1" fill="#e57373"></path><g id="SvgjsG1455"><text id="SvgjsText1456" font-family="微软雅黑" text-anchor="middle" font-size="13px" width="83px" fill="#323232" font-weight="700" align="middle" lineHeight="125%" anchor="middle" family="微软雅黑" size="13px" weight="700" font-style="" opacity="1" y="47.125" transform="rotate(0)"><tspan id="SvgjsTspan1457" dy="16" x="51.5"><tspan id="SvgjsTspan1458" style="text-decoration:;">直接内存</tspan></tspan><tspan id="SvgjsTspan1459" dy="16" x="51.5"><tspan id="SvgjsTspan1460" style="text-decoration:;">Direct </tspan></tspan><tspan id="SvgjsTspan1461" dy="16" x="51.5"><tspan id="SvgjsTspan1462" style="text-decoration:;">Memory</tspan></tspan></text></g></g><g id="SvgjsG1463" transform="matrix(6.123233995736766e-17,1,-1,6.123233995736766e-17,1222,345.50000000000006)"><path id="SvgjsPath1464" d="M 0 675.5Q 6.349999999999989 675.5 6.349999999999989 666.5L 6.349999999999989 346.75Q 6.349999999999989 337.75 22 337.75Q 6.349999999999989 337.75 6.349999999999989 328.75L 6.349999999999989 9Q 6.349999999999989 0 0 0" stroke="rgba(97,97,97,1)" stroke-width="2" fill-opacity="1" fill="#4caf50"></path><path id="SvgjsPath1465" d="M 0 0L 63.499999999999886 0L 63.499999999999886 675.5L 0 675.5Z" stroke="none" fill="none"></path><g id="SvgjsG1466"><text id="SvgjsText1467" font-family="微软雅黑" text-anchor="start" font-size="13px" width="37px" fill="#323232" font-weight="400" align="middle" lineHeight="125%" anchor="start" family="微软雅黑" size="13px" weight="400" font-style="" opacity="1" y="328.125" transform="rotate(0)"></text></g></g><g id="SvgjsG1468" transform="translate(742,517.75)"><path id="SvgjsPath1469" d="M 88 0Q 79.2 0 79.2 9L 79.2 39.25Q 79.2 48.25 66 48.25Q 79.2 48.25 79.2 57.25L 79.2 87.5Q 79.2 96.5 88 96.5" stroke="rgba(97,97,97,1)" stroke-width="2" fill-opacity="1" fill="#e57373"></path><path id="SvgjsPath1470" d="M 0 0L 88 0L 88 96.5L 0 96.5Z" stroke="none" fill="none"></path><g id="SvgjsG1471"><text id="SvgjsText1472" font-family="微软雅黑" text-anchor="end" font-size="13px" width="61px" fill="#323232" font-weight="700" align="middle" lineHeight="125%" anchor="end" family="微软雅黑" size="13px" weight="700" font-style="" opacity="1" y="38.625" transform="rotate(0)"></text></g></g><g id="SvgjsG1473" transform="translate(721,541)"><path id="SvgjsPath1474" d="M 0 4Q 0 0 4 0L 68 0Q 72 0 72 4L 72 46Q 72 50 68 50L 4 50Q 0 50 0 46Z" stroke="rgba(50,50,50,1)" stroke-width="2" fill-opacity="1" fill="#e57373"></path><g id="SvgjsG1475"><text id="SvgjsText1476" font-family="微软雅黑" text-anchor="middle" font-size="13px" width="52px" fill="#323232" font-weight="400" align="middle" lineHeight="125%" anchor="middle" family="微软雅黑" size="13px" weight="400" font-style="" opacity="1" y="15.375" transform="rotate(0)"><tspan id="SvgjsTspan1477" dy="16" x="36"><tspan id="SvgjsTspan1478" style="text-decoration:;">直接内存</tspan></tspan></text></g></g><g id="SvgjsG1479" transform="translate(828,541)"><path id="SvgjsPath1480" d="M 0 0L 252 0L 252 40L 0 40Z" stroke="none" fill="none"></path><g id="SvgjsG1481"><text id="SvgjsText1482" font-family="微软雅黑" text-anchor="middle" font-size="15px" width="252px" fill="#323232" font-weight="700" align="middle" lineHeight="125%" anchor="middle" family="微软雅黑" size="15px" weight="700" font-style="" opacity="1" y="9.125" transform="rotate(0)"><tspan id="SvgjsTspan1483" dy="18" x="126"><tspan id="SvgjsTspan1484" style="text-decoration:;">-XX:MaxDirectMemorySize=size</tspan></tspan></text></g></g><g id="SvgjsG1485" transform="translate(1107,536)"><path id="SvgjsPath1486" d="M 0 4Q 0 0 4 0L 68 0Q 72 0 72 4L 72 46Q 72 50 68 50L 4 50Q 0 50 0 46Z" stroke="rgba(50,50,50,1)" stroke-width="2" fill-opacity="1" fill="#4caf50"></path><g id="SvgjsG1487"><text id="SvgjsText1488" font-family="微软雅黑" text-anchor="middle" font-size="13px" width="52px" fill="#323232" font-weight="400" align="middle" lineHeight="125%" anchor="middle" family="微软雅黑" size="13px" weight="400" font-style="" opacity="1" y="15.375" transform="rotate(0)"><tspan id="SvgjsTspan1489" dy="16" x="36"><tspan id="SvgjsTspan1490" style="text-decoration:;">虚拟机栈</tspan></tspan></text></g></g><g id="SvgjsG1491" transform="translate(1122,512.75)"><path id="SvgjsPath1492" d="M 88 0Q 79.2 0 79.2 9L 79.2 39.25Q 79.2 48.25 66 48.25Q 79.2 48.25 79.2 57.25L 79.2 87.5Q 79.2 96.5 88 96.5" stroke="rgba(97,97,97,1)" stroke-width="2" fill-opacity="1" fill="#4caf50"></path><path id="SvgjsPath1493" d="M 0 0L 88 0L 88 96.5L 0 96.5Z" stroke="none" fill="none"></path><g id="SvgjsG1494"><text id="SvgjsText1495" font-family="微软雅黑" text-anchor="end" font-size="13px" width="61px" fill="#323232" font-weight="700" align="middle" lineHeight="125%" anchor="end" family="微软雅黑" size="13px" weight="700" font-style="" opacity="1" y="38.625" transform="rotate(0)"></text></g></g><g id="SvgjsG1496" transform="translate(1196,536)"><path id="SvgjsPath1497" d="M 0 0L 120 0L 120 40L 0 40Z" stroke="none" fill="none"></path><g id="SvgjsG1498"><text id="SvgjsText1499" font-family="微软雅黑" text-anchor="middle" font-size="15px" width="120px" fill="#323232" font-weight="700" align="middle" lineHeight="125%" anchor="middle" family="微软雅黑" size="15px" weight="700" font-style="" opacity="1" y="9.125" transform="rotate(0)"><tspan id="SvgjsTspan1500" dy="18" x="60"><tspan id="SvgjsTspan1501" style="text-decoration:;">-Xsssize</tspan></tspan></text></g></g></svg>